<?xml version="1.0" ?>
<!-- Uploaded to: SVG Repo, www.svgrepo.com, Generator: SVG Repo Mixer Tools -->
<svg width="800px" height="800px" viewBox="0 0 48 48" id="svg5" version="1.1" xml:space="preserve" xmlns="http://www.w3.org/2000/svg" xmlns:svg="http://www.w3.org/2000/svg">
<defs id="defs2"/>
<g id="layer1" transform="translate(-26,-305)">
<path d="m 44.000048,328.67941 5.196153,3 L 39.196153,349 38.579267,344.06848 34,346 c 3.333351,-5.77353 6.666699,-11.54706 10.000048,-17.32059 z" id="path4783" style="color:#000000;fill:#ff5576;fill-opacity:1;fill-rule:evenodd;stroke-width:2;stroke-linecap:round;stroke-linejoin:round;stroke-miterlimit:4.1"/>
<path d="m 55.999976,328.67941 -5.196153,3 L 60.803871,349 61.420757,344.06848 66.000024,346 c -3.333351,-5.77353 -6.666699,-11.54706 -10.000048,-17.32059 z" id="path4789" style="color:#000000;fill:#ff5576;fill-opacity:1;fill-rule:evenodd;stroke-width:2;stroke-linecap:round;stroke-linejoin:round;stroke-miterlimit:4.1;-inkscape-stroke:none"/>
<path d="m 58.61151,332.64671 -1.093909,4.40936 -4.365569,-1.25732 -3.152031,3.27166 -3.152031,-3.27166 -4.365569,1.25732 -1.09391,-4.40936 -4.409356,-1.0939 1.257325,-4.36557 -3.27166,-3.15204 3.27166,-3.15203 -1.257325,-4.36557 4.409356,-1.0939 1.093909,-4.40936 4.365569,1.25732 L 50,309 l 3.152031,3.27166 4.365569,-1.25732 1.09391,4.40936 4.409356,1.0939 -1.257325,4.36557 3.27166,3.15203 -3.27166,3.15204 1.257325,4.36557 z" id="path789" style="fill:#e7e7e7;fill-rule:evenodd;stroke-width:2;stroke-linecap:round;stroke-linejoin:round;stroke-miterlimit:4.1"/>
<path d="m 43.720703,313.0625 a 15.136557,15.136557 0 0 0 -1.777344,0.12695 l -0.554687,2.23438 -4.410156,1.09375 1.257812,4.36523 -3.271484,3.15235 3.271484,3.15234 -1.257812,4.36523 4.410156,1.09375 1.09375,4.41016 4.365234,-1.25781 3.152344,3.27148 3.152344,-3.27148 3.076172,0.88672 a 15.136557,15.136557 0 0 0 2.628906,-8.48633 15.136557,15.136557 0 0 0 -15.136719,-15.13672 z" id="path5647" style="fill:#fafafa;fill-opacity:1;fill-rule:evenodd;stroke:none;stroke-width:2;stroke-linecap:round;stroke-linejoin:round;stroke-miterlimit:4.1;stroke-opacity:1"/>
<path d="m 57.99999,324.03521 c 0,4.41826 -3.58171,7.99998 -7.99998,7.99998 -4.41828,0 -8,-3.58172 -8,-7.99998 0,-4.41827 3.58172,-8 8,-8 4.41827,0 7.99998,3.58173 7.99998,8 z" id="path1540" style="fill:#f2a50c;fill-opacity:1;fill-rule:evenodd;stroke:none;stroke-width:2;stroke-linecap:round;stroke-linejoin:round;stroke-miterlimit:4.1;stroke-opacity:1"/>
<path d="M 48.648438,316.15039 C 44.874149,316.79295 42,320.07779 42,324.03516 c 0,3.95735 2.874149,7.2422 6.648438,7.88476 3.773341,-0.64334 6.646484,-3.92807 6.646484,-7.88476 0,-3.9567 -2.873143,-7.24143 -6.646484,-7.88477 z" id="path8683" style="fill:#fcca3d;fill-opacity:1;fill-rule:evenodd;stroke:none;stroke-width:2;stroke-linecap:round;stroke-linejoin:round;stroke-miterlimit:4.1;stroke-opacity:1"/>
<path d="m 50,317.77344 a 1.0057675,0.9942576 0 0 0 -1.005859,0.99609 v 0.86328 c -1.090652,0.39441 -1.894531,1.40627 -1.894531,2.60938 0,1.55135 1.333807,2.78711 2.90039,2.78711 0.52508,0 0.888672,0.36923 0.888672,0.79882 -10e-7,0.42962 -0.363602,0.79883 -0.888672,0.79883 -0.525074,0 -0.886718,-0.36921 -0.886719,-0.79883 a 1.0057675,0.9942576 0 0 0 -1.005859,-0.99413 1.0057675,0.9942576 0 0 0 -1.007812,0.99413 c 1e-6,1.20312 0.803877,2.21497 1.894531,2.60938 v 0.86328 A 1.0057675,0.9942576 0 0 0 50,330.29687 a 1.0057675,0.9942576 0 0 0 1.005859,-0.99609 v -0.86328 c 1.090653,-0.39441 1.894528,-1.40626 1.894531,-2.60938 0,-1.55134 -1.333808,-2.7871 -2.90039,-2.7871 -0.525083,0 -0.886719,-0.36921 -0.886719,-0.79883 0,-0.42961 0.36163,-0.79883 0.886719,-0.79883 0.525084,0 0.888672,0.36922 0.888672,0.79883 a 1.0057675,0.9942576 0 0 0 1.005859,0.99414 1.0057675,0.9942576 0 0 0 1.005859,-0.99414 c 0,-1.20312 -0.803879,-2.21497 -1.894531,-2.60938 v -0.86328 A 1.0057675,0.9942576 0 0 0 50,317.77344 Z" id="path4072" style="color:#000000;fill:#808b9b;fill-opacity:1;fill-rule:evenodd;stroke:none;stroke-width:0.999996;stroke-linecap:round;stroke-linejoin:round;stroke-miterlimit:4.1;stroke-opacity:1"/>
</g>
</svg>